<svg xmlns="http://www.w3.org/2000/svg" width="24" height="24" viewBox="0 0 24 24" id="cube">
  <g>
    <g>
      <polygon points="14.68 13.06 19.23 15.69 19.23 16.68 14.29 13.83 14.68 13.06" style="fill:#4285f4;fill-rule:evenodd"></polygon>
      <polygon points="9.98 13.65 4.77 16.66 4.45 15.86 9.53 12.92 9.98 13.65" style="fill-rule:evenodd;fill:#669df6"></polygon>
      <rect width=".86" height="5.78" x="11.55" y="3.29" style="fill:#aecbfa"></rect>
      <path d="M3.25,7V17L12,22l8.74-5V7L12,2Zm15.63,8.89L12,19.78,5.12,15.89V8.11L12,4.22l6.87,3.89v7.78Z" style="fill-rule:evenodd;fill:#aecbfa"></path>
      <polygon points="11.98 11.5 15.96 9.21 11.98 6.91 8.01 9.21 11.98 11.5" style="fill-rule:evenodd;fill:#aecbfa"></polygon>
      <polygon points="11.52 12.3 7.66 10.01 7.66 14.6 11.52 16.89 11.52 12.3" style="fill-rule:evenodd;fill:#669df6"></polygon>
      <polygon points="12.48 12.3 12.48 16.89 16.34 14.6 16.34 10.01 12.48 12.3" style="fill:#4285f4;fill-rule:evenodd"></polygon>
    </g>
  </g>
</svg>
